HIERARCHY
ROOT Hips
{
	OFFSET 0.000000 0.000000 0.000000 
	CHANNELS 6 Xposition Yposition Zposition Yrotation Zrotation Xrotation 
	JOINT Lumbar
	{
		OFFSET 0.000000 0.000000 0.000000 
		CHANNELS 3 Zrotation Xrotation Yrotation
		JOINT Neck
		{
			OFFSET 0.000000 0.445665 0.000000 
			CHANNELS 3 Zrotation Xrotation Yrotation
			End Site
			{
				OFFSET 0.000000 0.227535 0.000000 
			}
		}
		JOINT RightShoulder
		{
			OFFSET 0.019635 0.377685 0.194865 
			CHANNELS 3 Zrotation Xrotation Yrotation
			JOINT RightElbow
			{
				OFFSET 0.000000 -0.243375 0.000000 
				CHANNELS 2 Zrotation Yrotation
				JOINT RightWrist
				{
					OFFSET 0.000000 -0.264825 0.000000 
					CHANNELS 2 Zrotation Xrotation
					End Site
					{
						OFFSET 0.006600 -0.176220 0.000990 
					}
				}
			}
		}
		JOINT LeftShoulder
		{
			OFFSET 0.019635 0.377685 -0.194865 
			CHANNELS 3 Zrotation Xrotation Yrotation
			JOINT LeftElbow
			{
				OFFSET 0.000000 -0.243375 0.000000 
				CHANNELS 2 Zrotation Yrotation
				JOINT LeftWrist
				{
					OFFSET 0.000000 -0.264825 0.000000 
					CHANNELS 2 Zrotation Xrotation
					End Site
					{
						OFFSET 0.006600 -0.176220 -0.000990 
					}
				}
			}
		}
	}
	JOINT RightHip
	{
		OFFSET 0.052140 -0.069960 0.075570 
		CHANNELS 3 Zrotation Xrotation Yrotation
		JOINT RightKnee
		{
			OFFSET 0.000000 -0.402270 0.000000 
			CHANNELS 1 Zrotation
			JOINT RightAnkle
			{
				OFFSET 0.000000 -0.404085 0.000000 
				CHANNELS 3 Zrotation Xrotation Yrotation
				End Site
				{
					OFFSET 0.204105 -0.089430 0.008415 
				}
			}
		}
	}
	JOINT LeftHip
	{
		OFFSET 0.052140 -0.069960 -0.075570 
		CHANNELS 3 Zrotation Xrotation Yrotation
		JOINT LeftKnee
		{
			OFFSET 0.000000 -0.402270 0.000000 
			CHANNELS 1 Zrotation
			JOINT LeftAnkle
			{
				OFFSET 0.000000 -0.404085 0.000000 
				CHANNELS 3 Zrotation Xrotation Yrotation
				End Site
				{
					OFFSET 0.204105 -0.089430 -0.008415 
				}
			}
		}
	}
}
MOTION
Frames: 20
Frame Time: 0.02
0.09476 0.96024 -0.11445 200.89584 0 -3.47045 4.22512 5.38325 -2.96614 -8.87029 0.56395 -1.86999 12.36865 -25.97588 -40.06114 108.55303 146.1709 23.16813 9.89705 -12.56136 8.2919 19.20679 103.83501 -132.33889 31.43108 -4.27349 -3.82482 7.81501 5.26914 -4.51542 0.09205 -4.06112 -6.15147 -2.46249 1.04818 -19.25038 -8.40486 6.0077 5.95748 8.42104
0.09457 0.96028 -0.11445 200.35112 0 -3.49302 4.00846 5.57865 -3.02895 -8.3507 0.19613 -2.23975 12.57728 -26.22274 -43.77106 109.21544 143.9301 21.18931 9.75347 -13.60558 8.63132 19.9855 103.93401 -132.66476 31.95337 -4.27424 -3.80791 7.80758 5.65765 -4.49323 0.03125 -4.0159 -6.06876 -2.5409 1.05153 -18.82452 -8.38315 6.0397 5.99196 8.50158
0.09438 0.96031 -0.11442 199.73037 0 -3.51689 3.79418 5.8306 -3.06244 -7.78398 -0.18294 -2.6069 12.77852 -26.37567 -47.47735 109.57744 141.0446 19.25521 9.56762 -14.68077 9.01193 20.71395 104.03911 -133.00725 32.58099 -4.26308 -3.78619 7.79524 6.10849 -4.47181 -0.032 -3.96216 -5.97565 -2.62853 1.05076 -18.34129 -8.36047 6.07741 6.03218 8.59679
0.09418 0.96034 -0.11441 199.14568 0 -3.54003 3.5826 6.05533 -3.11449 -7.25778 -0.53353 -2.97257 12.97329 -26.59543 -51.11401 110.05407 138.04451 17.22609 9.39701 -15.71381 9.34759 21.455 104.13387 -133.32264 33.14491 -4.255 -3.76741 7.78498 6.52913 -4.4496 -0.09372 -3.91251 -5.88644 -2.71264 1.05159 -17.88734 -8.33757 6.11228 6.06993 8.68727
0.09401 0.96038 -0.1144 198.54995 0 -3.56405 3.35378 6.28802 -3.14406 -6.64951 -0.98364 -3.35219 13.2149 -26.71692 -55.0605 110.62071 136.69231 15.49314 9.24088 -16.86972 9.7952 22.2436 104.26053 -133.71985 33.78455 -4.25531 -3.74531 7.77543 6.96078 -4.429 -0.15788 -3.8614 -5.79998 -2.79478 1.0538 -17.41693 -8.31689 6.14828 6.10729 8.77085
0.09378 0.9604 -0.11436 197.96107 0 -3.58647 3.16203 6.517 -3.21439 -6.20306 -1.22811 -3.69961 13.35613 -27.01778 -58.35225 110.93005 131.84104 13.17685 9.04749 -17.77316 10.01875 22.91736 104.32183 -133.95171 34.28574 -4.23642 -3.7288 7.76327 7.38343 -4.40561 -0.2172 -3.81161 -5.70593 -2.88261 1.05209 -16.96789 -8.29188 6.18341 6.14676 8.87126
0.09336 0.9604 -0.11425 197.40866 0 -3.60365 3.07039 6.72155 -3.39429 -6.19321 -0.91201 -3.97769 13.20595 -27.85432 -59.90076 110.59512 116.76324 9.04642 8.73516 -18.00249 9.61742 23.31354 104.20677 -133.71234 34.4092 -4.16037 -3.73167 7.74432 7.76166 -4.37075 -0.26356 -3.76637 -5.58951 -2.98697 1.04027 -16.5974 -8.25139 6.21254 6.1904 9.02137
0.09288 0.96038 -0.11412 196.86694 0 -3.61919 3.01623 6.92029 -3.61751 -6.34963 -0.38794 -4.22013 12.95452 -28.86925 -60.77905 110.0135 98.32315 4.36346 8.39113 -17.97301 8.98949 23.59071 104.02536 -133.30807 34.38431 -4.06671 -3.73987 7.72301 8.12866 -4.33367 -0.30472 -3.72302 -5.46662 -3.096 1.02464 -16.25025 -8.20732 6.24087 6.23593 9.18663
0.09244 0.96036 -0.11399 196.32124 0 -3.63584 2.94643 7.12162 -3.82816 -6.44701 0.04911 -4.46594 12.7623 -29.79327 -61.92076 109.54949 81.89527 0.05988 8.07965 -18.03873 8.46107 23.904 103.86993 -132.98604 34.40503 -3.98602 -3.74387 7.70329 8.5036 -4.29996 -0.3475 -3.67964 -5.34932 -3.20089 1.01097 -15.88873 -8.16735 6.27113 6.2808 9.34028
0.09195 0.96036 -0.11386 195.76772 0 -3.65119 2.87167 7.32495 -4.00993 -6.48219 0.45932 -4.76447 12.52475 -30.76334 -63.23246 109.05058 63.39562 -4.78357 7.69247 -18.19069 7.94384 24.29065 103.72979 -132.63324 34.51678 -3.88447 -3.7552 7.68131 8.87023 -4.25644 -0.39342 -3.63245 -5.22042 -3.31494 0.99633 -15.53933 -8.11684 6.29546 6.32526 9.51403
0.09155 0.96033 -0.11374 195.23577 0 -3.66858 2.81503 7.52225 -4.2598 -6.67551 0.96845 -4.94647 12.34444 -31.67134 -64.03565 108.57115 48.42733 -8.63453 7.45301 -18.11307 7.35511 24.49783 103.54514 -132.30583 34.40835 -3.82164 -3.75258 7.66342 9.24886 -4.23268 -0.43166 -3.59374 -5.11435 -3.41049 0.98268 -15.17312 -8.08751 6.33127 6.37065 9.64979
0.09136 0.96025 -0.11365 194.74746 0 -3.69417 2.80892 7.70142 -4.71075 -7.36504 1.75691 -4.80065 12.46161 -32.44921 -63.55605 108.19462 43.976 -9.61568 7.65447 -17.36078 6.57082 24.23014 103.22653 -132.08303 33.67592 -3.87632 -3.71046 7.6584 9.67782 -4.26485 -0.44876 -3.5784 -5.07262 -3.45732 0.97445 -14.73758 -8.11687 6.40419 6.42054 9.67225
0.09127 0.96016 -0.11356 194.28404 0 -3.72143 2.81808 7.87466 -5.22468 -8.19048 2.62779 -4.54167 12.61982 -33.14401 -62.59472 107.84963 43.20163 -9.5839 8.00095 -16.40448 5.73179 23.78753 102.87037 -131.89263 32.73659 -3.96944 -3.65421 7.65745 10.11563 -4.31666 -0.45851 -3.57152 -5.05426 -3.48467 0.96712 -14.28819 -8.16766 6.48764 6.47075 9.6565
0.09116 0.96008 -0.11348 193.81754 0 -3.74653 2.8137 8.05264 -5.69418 -8.88695 3.42281 -4.34406 12.68239 -33.82035 -61.88319 107.49937 40.79324 -10.00465 8.26496 -15.61115 4.95325 23.4311 102.54937 -131.69096 31.92529 -4.04094 -3.60408 7.654 10.54031 -4.35913 -0.4724 -3.5605 -5.02543 -3.51859 0.95817 -13.85628 -8.20927 6.56292 6.5193 9.66153
0.09097 0.95997 -0.11337 193.31393 0 -3.7776 2.83788 8.22314 -6.23108 -9.86889 4.38467 -4.10276 13.06097 -34.73618 -61.02223 107.10288 38.1392 -10.45343 8.59865 -14.51698 4.01813 23.04328 102.15007 -131.46836 30.96389 -4.12941 -3.55487 7.65311 11.0055 -4.40393 -0.48276 -3.55065 -4.99559 -3.5623 0.95391 -13.37647 -8.24897 6.65272 6.57457 9.65367
0.09096 0.95992 -0.11332 192.89675 0 -3.79651 2.80647 8.40622 -6.64302 -10.29142 5.01909 -3.92662 12.79929 -35.13619 -60.36143 106.81236 36.87842 -10.62638 8.82094 -13.99833 3.39703 22.67959 101.90529 -131.29996 30.26972 -4.1918 -3.501 7.648 11.38556 -4.44774 -0.49878 -3.54051 -4.97367 -3.58094 0.9405 -12.99464 -8.29704 6.71445 6.61557 9.66216
0.09147 0.96001 -0.11339 192.68398 0 -3.78253 2.6112 8.63933 -6.6853 -9.09292 4.70078 -3.95327 10.70127 -34.08784 -60.41963 106.8168 38.89757 -10.01999 8.71026 -15.16975 3.67509 22.4362 102.1015 -131.26747 30.34755 -4.17381 -3.43168 7.62922 11.55394 -4.49142 -0.53221 -3.52613 -4.96662 -3.53468 0.89856 -12.87198 -8.3696 6.69904 6.6198 9.73566
0.09217 0.96016 -0.11352 192.5628 0 -3.75607 2.36058 8.88258 -6.60105 -7.33512 4.05458 -4.05031 7.96939 -32.53077 -60.68937 106.92566 42.15325 -9.21549 8.48096 -16.91763 4.26855 22.22145 102.45393 -131.29024 30.70406 -4.12828 -3.35916 7.60629 11.63169 -4.53223 -0.57155 -3.51146 -4.96725 -3.46377 0.84795 -12.85141 -8.44886 6.65453 6.60917 9.82496
0.09278 0.96029 -0.11364 192.41775 0 -3.73458 2.13935 9.11231 -6.58069 -5.85934 3.57576 -4.11868 5.5658 -31.23459 -60.83497 106.98209 44.63388 -8.6759 8.29919 -18.37144 4.70675 21.98737 102.73181 -131.29251 30.94614 -4.09452 -3.29213 7.58585 11.7341 -4.56926 -0.60834 -3.49771 -4.96493 -3.4046 0.80334 -12.79319 -8.52041 6.62132 6.60353 9.89997
0.09341 0.96041 -0.11369 192.19754 0 -3.71603 1.90044 9.38009 -6.53604 -4.26613 3.02143 -4.16977 2.9916 -29.80965 -61.08504 107.06268 48.11429 -7.37236 8.14846 -19.95983 5.19397 21.77477 103.02322 -131.27675 31.13436 -4.06459 -3.20793 7.5628 11.90626 -4.62769 -0.64461 -3.4807 -4.96013 -3.3431 0.75013 -12.69605 -8.61141 6.59633 6.60527 10.00338
